<?xml version="1.0" encoding="UTF-8"?>
<svg xmlns="http://www.w3.org/2000/svg" xmlns:xlink="http://www.w3.org/1999/xlink" width="252pt" height="252pt" viewBox="0 0 252 252" version="1.1">
<g id="surface1">
<path style=" stroke:none;fill-rule:nonzero;fill:rgb(58.039216%,0%,25.098039%);fill-opacity:1;" d="M 149.109375 30.332031 C 148.332031 35 144.890625 36.777344 140.554688 36.109375 C 135.667969 35.332031 133 32.667969 133.445312 29.445312 L 135.554688 15.890625 C 135.890625 13.445312 133.109375 14.222656 133.222656 13.332031 C 133.222656 13.109375 133.445312 13 133.890625 13 C 135.445312 13.222656 137 13.554688 138.222656 13.777344 C 139.445312 14 141 14.109375 142.554688 14.445312 C 143 14.554688 143.109375 14.667969 143.109375 15 C 143 15.890625 140.445312 14.222656 140.109375 16.777344 L 138 30.332031 C 137.554688 32.890625 139.445312 35.222656 142 35.554688 C 145.222656 36.109375 147.777344 34.332031 148.445312 30.554688 L 149.890625 21.109375 C 150.332031 18.445312 149.554688 16.777344 148.222656 16.109375 C 147.777344 15.890625 147.332031 15.777344 147.332031 15.445312 C 147.332031 15.222656 147.445312 15.109375 147.777344 15.222656 C 148.554688 15.332031 149.777344 15.554688 151.109375 15.777344 C 152.332031 16 153.554688 16.109375 154.445312 16.222656 C 154.777344 16.332031 154.890625 16.445312 154.777344 16.667969 C 154.777344 17 154.222656 16.890625 153.777344 17 C 152.222656 17.222656 151 18.554688 150.667969 21.332031 Z M 149.109375 30.332031 "/>
<path style=" stroke:none;fill-rule:nonzero;fill:rgb(58.039216%,0%,25.098039%);fill-opacity:1;" d="M 158.445312 34.890625 C 157.445312 37.222656 157.890625 38.554688 158.667969 39.332031 C 159.332031 40 160.222656 40.109375 160 40.554688 C 159.890625 40.777344 159.777344 40.890625 159.445312 40.667969 C 158.445312 40.222656 157.332031 39.667969 156.222656 39.109375 C 155 38.554688 153.890625 38.109375 152.890625 37.667969 C 152.554688 37.554688 152.554688 37.332031 152.667969 37.222656 C 152.890625 36.777344 153.554688 37.332031 154.445312 37.332031 C 155.445312 37.332031 156.777344 36.777344 157.777344 34.445312 L 163.332031 21.890625 C 163 20.109375 162.332031 19.332031 161.445312 18.890625 C 161 18.667969 160.777344 18.554688 161 18.222656 C 161.109375 18 161.222656 18 161.445312 18.109375 C 162.445312 18.554688 163.445312 19.109375 164.554688 19.554688 L 167.777344 21 L 172.332031 38.445312 L 172.445312 38.445312 L 176.222656 29.890625 C 177.222656 27.554688 176.777344 26.222656 176 25.445312 C 175.332031 24.777344 174.445312 24.667969 174.667969 24.222656 C 174.777344 24 174.890625 23.890625 175.222656 24.109375 C 176.222656 24.554688 177.332031 25.109375 178.445312 25.667969 C 179.667969 26.222656 180.777344 26.667969 181.777344 27.109375 C 182.109375 27.222656 182.109375 27.445312 182 27.554688 C 181.777344 28 181.109375 27.445312 180.222656 27.445312 C 179.222656 27.445312 177.890625 28 176.890625 30.332031 L 170.332031 45.109375 C 170.109375 45.667969 169.890625 46 169.667969 46 C 169.445312 45.890625 169.332031 45.445312 169.222656 45 L 163.667969 23.332031 L 163.554688 23.332031 Z M 158.445312 34.890625 "/>
<path style=" stroke:none;fill-rule:nonzero;fill:rgb(58.039216%,0%,25.098039%);fill-opacity:1;" d="M 188.332031 34.890625 C 189.777344 32.890625 186.890625 32.222656 187.445312 31.554688 C 187.554688 31.332031 187.777344 31.332031 188.222656 31.554688 C 189.554688 32.445312 190.667969 33.445312 191.777344 34.109375 C 192.777344 34.890625 194.109375 35.667969 195.332031 36.554688 C 195.777344 36.890625 195.777344 37 195.554688 37.222656 C 195 37.890625 193.554688 35.332031 192.109375 37.445312 L 182.667969 50.667969 C 181.222656 52.667969 184.109375 53.332031 183.554688 54 C 183.445312 54.222656 183.222656 54.222656 182.777344 54 C 181.445312 53.109375 180.332031 52.109375 179.222656 51.445312 C 178.222656 50.667969 176.890625 49.890625 175.667969 49 C 175.222656 48.667969 175.222656 48.554688 175.445312 48.332031 C 176 47.667969 177.445312 50.222656 178.890625 48.109375 Z M 188.332031 34.890625 "/>
<path style=" stroke:none;fill-rule:nonzero;fill:rgb(58.039216%,0%,25.098039%);fill-opacity:1;" d="M 208.109375 56.445312 C 208.777344 56.222656 209.445312 55.777344 209.890625 55.332031 C 212.109375 53.222656 209.667969 51.777344 210.222656 51.222656 C 210.332031 51.109375 210.554688 51.109375 210.890625 51.332031 C 211.667969 52.109375 212.332031 52.890625 213 53.667969 C 213.667969 54.445312 214.445312 55.109375 215.222656 55.890625 C 215.667969 56.332031 215.777344 56.667969 215.667969 56.890625 C 215 57.554688 214.222656 54.890625 209.667969 56.667969 L 192.890625 63.109375 C 192.554688 63.222656 192.109375 63.332031 192 63.222656 C 191.890625 63.109375 192 62.777344 192.222656 62.332031 L 200.332031 44.222656 C 201.445312 41.554688 199.667969 40.890625 200.109375 40.445312 C 200.222656 40.332031 200.445312 40.332031 200.667969 40.554688 C 201.777344 41.667969 202.667969 42.777344 203.667969 43.890625 C 204.667969 44.890625 205.667969 45.890625 206.667969 47 C 207 47.445312 207.109375 47.667969 206.890625 47.777344 C 206.445312 48.222656 205.445312 46.109375 204.332031 47.222656 C 204 47.554688 203.777344 47.890625 203.667969 48.222656 L 197.890625 60.445312 Z M 208.109375 56.445312 "/>
<path style=" stroke:none;fill-rule:nonzero;fill:rgb(58.039216%,0%,25.098039%);fill-opacity:1;" d="M 217.222656 63.445312 C 219.332031 62.109375 216.890625 60.445312 217.667969 60 C 217.890625 59.890625 218.109375 59.890625 218.332031 60.332031 C 219.109375 61.667969 219.890625 63 220.554688 64.109375 C 222.554688 67.445312 224.445312 70.667969 226.445312 73.777344 L 222.109375 78.222656 C 221.777344 78.554688 221.554688 78.777344 221.554688 78.777344 C 221.445312 78.890625 221.332031 78.777344 221.222656 78.667969 C 221.109375 78.445312 221.554688 78.222656 222.667969 76.109375 C 224 73.554688 224.109375 71.222656 222.109375 67.890625 L 221.222656 66.445312 L 213.445312 71.109375 L 213.890625 71.777344 C 215 73.667969 217.222656 74.222656 219.222656 73.109375 C 219.777344 72.777344 220 72.777344 220.109375 73.109375 C 220.222656 73.222656 220.109375 73.445312 219.890625 73.554688 L 211.667969 78.445312 C 211.445312 78.554688 211.222656 78.554688 211.109375 78.445312 C 211 78.222656 211 78 211.554688 77.667969 C 213.890625 76.109375 214.332031 74 213.222656 72.109375 L 212.777344 71.445312 L 206 75.554688 C 204.777344 76.332031 204.445312 77.222656 205.445312 78.890625 C 208 83.109375 212.332031 83.554688 215.445312 82.777344 C 216 82.667969 216.332031 82.554688 216.445312 82.777344 C 216.554688 83 216.445312 83.109375 216.332031 83.222656 C 216.222656 83.332031 215.777344 83.445312 215.445312 83.554688 L 208.777344 86 C 206.667969 82.445312 204.554688 78.777344 202.332031 75.109375 C 201.667969 74 200.890625 72.777344 200 71.445312 C 199.777344 71 199.777344 70.777344 200 70.667969 C 200.777344 70.222656 201.109375 73.109375 203.222656 71.890625 Z M 217.222656 63.445312 "/>
<path style=" stroke:none;fill-rule:nonzero;fill:rgb(58.039216%,0%,25.098039%);fill-opacity:1;" d="M 221.777344 99 C 223.109375 97.777344 223.222656 96.222656 222.667969 94.554688 L 215.445312 96.667969 C 213 97.332031 215 99.667969 214.109375 99.890625 C 213.890625 100 213.667969 99.890625 213.554688 99.445312 C 213.109375 97.890625 212.777344 96.445312 212.332031 95.222656 C 212 94 211.445312 92.554688 211 91 C 210.890625 90.554688 211 90.332031 211.222656 90.332031 C 212.109375 90.109375 211.667969 93 214.109375 92.332031 L 229.777344 87.777344 C 232.222656 87.109375 230.222656 84.777344 231.109375 84.554688 C 231.332031 84.445312 231.554688 84.554688 231.667969 85 C 232.109375 86.554688 232.445312 88 232.890625 89.222656 C 233.332031 90.777344 233.777344 92 234.332031 94 C 235.890625 99.109375 234.332031 102.554688 231.332031 103.445312 C 228.777344 104.222656 226.222656 103.222656 223.777344 97.222656 L 223.667969 97.222656 C 224.667969 100.445312 224.332031 102.445312 222.445312 104.222656 L 218.777344 107.777344 C 216.777344 109.667969 218.445312 111.332031 217.667969 111.667969 C 217.445312 111.667969 217.332031 111.777344 217.222656 111.445312 C 216.890625 110.332031 216.667969 109.222656 216.332031 108.222656 L 215.332031 105 Z M 223.222656 94.332031 L 223.554688 95.554688 C 224.554688 99 226.667969 100 229.890625 99 C 233.222656 98 234.109375 96 233.332031 93.445312 L 232.777344 91.554688 Z M 223.222656 94.332031 "/>
<path style=" stroke:none;fill-rule:nonzero;fill:rgb(58.039216%,0%,25.098039%);fill-opacity:1;" d="M 225.890625 113.222656 C 226.222656 113.222656 226.332031 113.332031 226.332031 113.554688 C 226.332031 113.890625 225.890625 113.890625 225.222656 114 C 221.222656 115 217.332031 116.667969 217.554688 121.332031 C 217.667969 124.554688 219.445312 126.222656 221.890625 126.109375 C 228.222656 125.777344 224.554688 113.445312 232.332031 113 C 236 112.777344 239 115.777344 239.109375 119.667969 C 239.222656 122.667969 238.109375 124.222656 238.109375 125.109375 C 238.109375 126.222656 239 125.667969 239 126.222656 C 239 126.445312 238.890625 126.554688 238.445312 126.667969 L 232.554688 127.554688 C 232 127.667969 231.667969 127.667969 231.554688 127.667969 C 231.332031 127.667969 231.222656 127.554688 231.222656 127.445312 C 231.222656 127.109375 231.890625 127.109375 233.109375 126.554688 C 236.554688 125 238.554688 123.222656 238.332031 119.777344 C 238.222656 117.554688 237.109375 115.890625 234.777344 116 C 229.667969 116.222656 233.109375 128.890625 224.554688 129.222656 C 220.332031 129.445312 217 126.109375 216.777344 121.332031 C 216.667969 118.222656 218 116.667969 217.890625 115.445312 C 217.777344 114.222656 216.777344 114.445312 216.777344 113.890625 C 216.777344 113.777344 216.777344 113.667969 217 113.667969 Z M 225.890625 113.222656 "/>
<path style=" stroke:none;fill-rule:nonzero;fill:rgb(58.039216%,0%,25.098039%);fill-opacity:1;" d="M 235.554688 138.332031 C 238 138.667969 237.222656 135.777344 238.109375 135.890625 C 238.332031 135.890625 238.445312 136.109375 238.445312 136.554688 C 238.222656 138.109375 238 139.667969 237.777344 140.890625 C 237.554688 142.109375 237.445312 143.667969 237.222656 145.222656 C 237.109375 145.667969 237 145.777344 236.777344 145.777344 C 235.890625 145.667969 237.445312 143.109375 235 142.777344 L 218.890625 140.554688 C 216.445312 140.222656 217.222656 143.109375 216.332031 143 C 216.109375 143 216 142.777344 216 142.332031 C 216.222656 140.777344 216.445312 139.222656 216.667969 138 C 216.890625 136.777344 217 135.222656 217.222656 133.667969 C 217.332031 133.222656 217.445312 133.109375 217.667969 133.109375 C 218.554688 133.222656 217 135.777344 219.445312 136.109375 Z M 235.554688 138.332031 "/>
<path style=" stroke:none;fill-rule:nonzero;fill:rgb(58.039216%,0%,25.098039%);fill-opacity:1;" d="M 232.890625 159.332031 C 233.222656 152.890625 228.777344 151 229 150.332031 C 229 150.222656 229.222656 150.109375 229.332031 150.109375 C 229.445312 150.109375 229.890625 150.332031 230.332031 150.667969 L 235.445312 153.445312 C 235.890625 153.667969 236 153.777344 235.890625 154 C 235.890625 154.109375 235.667969 154.222656 235.554688 154.332031 C 235.445312 154.445312 235.222656 154.554688 235 155 L 230.554688 168.332031 C 230.445312 168.777344 230.554688 169 230.554688 169.222656 C 230.667969 169.445312 230.667969 169.554688 230.667969 169.667969 C 230.667969 169.777344 230.445312 169.890625 230 169.777344 L 224.222656 168.890625 C 223.667969 168.777344 223.222656 168.667969 223.109375 168.667969 C 222.890625 168.554688 222.890625 168.445312 222.890625 168.332031 C 223.109375 167.667969 227.777344 168.890625 231.445312 163.554688 L 214.890625 158 C 213 157.332031 212.222656 158.109375 211.777344 159.554688 C 211.667969 159.890625 211.554688 160.109375 211.222656 160 C 211 159.890625 210.890625 159.777344 211 159.445312 C 211.554688 157.777344 212.109375 156.222656 212.667969 154.890625 C 213.109375 153.445312 213.554688 152 214.109375 150.222656 C 214.222656 149.890625 214.332031 149.777344 214.554688 149.890625 C 214.890625 150 214.890625 150.222656 214.777344 150.554688 C 214.332031 152 214.445312 153.109375 216.332031 153.667969 Z M 232.890625 159.332031 "/>
<path style=" stroke:none;fill-rule:nonzero;fill:rgb(58.039216%,0%,25.098039%);fill-opacity:1;" d="M 211.777344 181.332031 L 214.109375 185.667969 C 214.890625 187.109375 215.890625 188.109375 216.667969 188.554688 C 218.445312 189.667969 219.222656 187.890625 219.667969 188.109375 C 219.777344 188.222656 219.890625 188.445312 219.667969 188.777344 C 219.109375 189.667969 218.667969 190.222656 218 191.332031 C 217.445312 192.109375 217 193 216.554688 193.890625 C 216.445312 194.109375 216.222656 194.109375 216.109375 194 C 215.554688 193.667969 217.109375 192.890625 214.445312 187.667969 L 211.109375 181.222656 L 204.667969 177.222656 C 202.554688 175.890625 202.109375 178.890625 201.445312 178.332031 C 201.222656 178.222656 201.109375 178 201.445312 177.554688 C 202.332031 176.222656 203.109375 175 203.777344 173.890625 C 204.445312 172.777344 205.222656 171.554688 206 170.109375 C 206.222656 169.667969 206.445312 169.667969 206.667969 169.777344 C 207.445312 170.222656 204.890625 171.890625 207.109375 173.222656 L 213 176.890625 L 223.445312 177.445312 C 226.222656 177.667969 226.554688 175.667969 227.109375 176 C 227.332031 176.109375 227.332031 176.332031 227.109375 176.667969 C 226.332031 178 225.445312 179.222656 224.667969 180.445312 C 223.890625 181.667969 223.222656 183 222.445312 184.222656 C 222.222656 184.667969 222 184.777344 221.777344 184.667969 C 221.222656 184.332031 222.890625 183 221.445312 182.109375 C 221 181.777344 220.445312 181.777344 219.667969 181.667969 Z M 211.777344 181.332031 "/>
<path style=" stroke:none;fill-rule:nonzero;fill:rgb(58.039216%,0%,25.098039%);fill-opacity:1;" d="M 46.777344 187.890625 C 46.445312 188.109375 46.332031 188 46.222656 187.890625 C 46 187.667969 46.445312 187.332031 46.890625 186.890625 C 49.777344 184 52.222656 180.554688 49.667969 176.667969 C 47.890625 174 45.554688 173.445312 43.554688 174.777344 C 38.222656 178.332031 47.890625 187 41.332031 191.332031 C 38.222656 193.445312 34.222656 192.332031 32 189.109375 C 30.332031 186.667969 30.554688 184.667969 30 183.890625 C 29.332031 183 28.890625 183.890625 28.554688 183.332031 C 28.445312 183.109375 28.445312 183 28.777344 182.667969 L 33.445312 178.890625 C 33.890625 178.554688 34.109375 178.332031 34.222656 178.222656 C 34.445312 178.109375 34.554688 178.109375 34.667969 178.222656 C 34.890625 178.445312 34.332031 178.890625 33.554688 180 C 31.445312 183.109375 30.667969 185.667969 32.554688 188.554688 C 33.777344 190.445312 35.554688 191.332031 37.554688 190 C 41.890625 187.109375 32.332031 178.109375 39.445312 173.332031 C 42.890625 171 47.554688 172.109375 50.222656 176.109375 C 52 178.667969 51.554688 180.777344 52.222656 181.777344 C 52.890625 182.777344 53.667969 182 54 182.445312 C 54.109375 182.554688 54.109375 182.667969 53.890625 182.777344 Z M 46.777344 187.890625 "/>
<path style=" stroke:none;fill-rule:nonzero;fill:rgb(58.039216%,0%,25.098039%);fill-opacity:1;" d="M 24.332031 169.332031 C 22 170.109375 24 172.332031 23.109375 172.554688 C 22.890625 172.667969 22.667969 172.554688 22.554688 172.109375 C 22 170.554688 21.667969 169.109375 21.222656 168 C 20.777344 166.777344 20.332031 165.445312 19.777344 163.890625 C 19.667969 163.445312 19.777344 163.222656 20 163.109375 C 20.890625 162.777344 20.554688 165.777344 22.890625 165 L 29.777344 162.667969 L 27.109375 154.890625 L 20.222656 157.222656 C 17.890625 158 19.890625 160.222656 19 160.445312 C 18.777344 160.554688 18.554688 160.445312 18.445312 160 C 17.890625 158.445312 17.554688 157 17.109375 155.890625 C 16.667969 154.667969 16.222656 153.332031 15.667969 151.777344 C 15.554688 151.332031 15.667969 151.109375 15.890625 151 C 16.667969 150.667969 16.445312 153.667969 18.777344 152.890625 L 34.222656 147.667969 C 36.554688 146.890625 34.554688 144.667969 35.445312 144.445312 C 35.667969 144.332031 35.890625 144.445312 36 144.890625 C 36.554688 146.445312 36.890625 147.890625 37.332031 149 C 37.777344 150.222656 38.222656 151.554688 38.777344 153.109375 C 38.890625 153.554688 38.777344 153.777344 38.554688 153.890625 C 37.667969 154.222656 38 151.222656 35.667969 152 L 27.777344 154.667969 L 30.445312 162.445312 L 38.332031 159.777344 C 40.667969 159 38.667969 156.777344 39.554688 156.554688 C 39.777344 156.445312 40 156.554688 40.109375 157 C 40.667969 158.554688 41 160 41.445312 161.109375 C 41.890625 162.332031 42.332031 163.667969 42.890625 165.222656 C 43 165.667969 42.890625 165.890625 42.667969 166 C 41.777344 166.332031 42.109375 163.332031 39.777344 164.109375 Z M 24.332031 169.332031 "/>
<path style=" stroke:none;fill-rule:nonzero;fill:rgb(58.039216%,0%,25.098039%);fill-opacity:1;" d="M 16.332031 138.332031 C 13.777344 138.445312 15.222656 141.109375 14.332031 141.109375 C 14.109375 141.109375 13.890625 141 13.890625 140.554688 C 13.777344 139 13.777344 137.445312 13.777344 136.222656 C 13.554688 132.332031 13.332031 128.667969 13.109375 124.890625 L 19 123 C 19.445312 122.890625 19.667969 122.777344 19.777344 122.777344 C 19.890625 122.777344 20 122.890625 20 123.109375 C 20 123.445312 19.445312 123.445312 17.445312 124.667969 C 15.109375 126.222656 13.890625 128.332031 14.109375 132.109375 L 14.222656 133.777344 L 23.222656 133.332031 L 23.222656 132.554688 C 23.109375 130.332031 21.445312 128.890625 19.109375 128.777344 C 18.445312 128.777344 18.332031 128.667969 18.332031 128.332031 C 18.332031 128.109375 18.445312 128 18.777344 128 L 28.332031 127.554688 C 28.667969 127.554688 28.777344 127.667969 28.777344 127.890625 C 28.777344 128.222656 28.667969 128.332031 28 128.332031 C 25.222656 128.554688 23.777344 130.222656 23.890625 132.445312 L 23.890625 133.222656 L 31.777344 132.890625 C 33.222656 132.777344 34 132.222656 33.890625 130.222656 C 33.667969 125.332031 30 122.890625 26.890625 122 C 26.332031 121.890625 26 121.777344 26 121.554688 C 26 121.332031 26.109375 121.222656 26.332031 121.222656 C 26.554688 121.222656 26.890625 121.222656 27.222656 121.332031 L 34.222656 122.332031 C 34.445312 126.445312 34.554688 130.667969 34.777344 135 C 34.890625 136.222656 35 137.777344 35 139.332031 C 35 139.890625 34.890625 140 34.667969 140 C 33.777344 140 34.890625 137.332031 32.332031 137.445312 Z M 16.332031 138.332031 "/>
<path style=" stroke:none;fill-rule:nonzero;fill:rgb(58.039216%,0%,25.098039%);fill-opacity:1;" d="M 30.554688 112.222656 C 33 112.777344 34.222656 112 34.890625 111.109375 C 35.445312 110.332031 35.332031 109.445312 35.890625 109.554688 C 36.109375 109.554688 36.222656 109.667969 36.109375 110.109375 C 35.890625 111.109375 35.554688 112.332031 35.332031 113.554688 C 35.109375 114.777344 34.890625 116 34.667969 117.109375 C 34.554688 117.445312 34.445312 117.554688 34.222656 117.445312 C 33.667969 117.332031 34.222656 116.554688 34 115.667969 C 33.777344 114.667969 33 113.445312 30.554688 112.890625 L 16.890625 110 C 15.222656 110.667969 14.554688 111.445312 14.222656 112.445312 C 14 112.890625 14 113.109375 13.667969 113.109375 C 13.445312 113.109375 13.332031 112.890625 13.445312 112.667969 C 13.667969 111.667969 14 110.554688 14.222656 109.332031 L 15 105.890625 L 31.222656 97.890625 L 31.222656 97.777344 L 22.222656 95.890625 C 19.777344 95.332031 18.554688 96.109375 17.890625 96.890625 C 17.332031 97.667969 17.445312 98.554688 16.890625 98.445312 C 16.667969 98.445312 16.554688 98.332031 16.667969 97.890625 C 16.890625 96.890625 17.222656 95.667969 17.445312 94.445312 C 17.667969 93.222656 17.890625 92 18.109375 90.890625 C 18.222656 90.554688 18.332031 90.445312 18.554688 90.554688 C 19.109375 90.667969 18.554688 91.445312 18.777344 92.332031 C 19 93.332031 19.777344 94.554688 22.222656 95.109375 L 38 98.554688 C 38.554688 98.667969 39 98.777344 39 99 C 38.890625 99.222656 38.554688 99.445312 38.109375 99.554688 L 18 109.332031 L 18 109.445312 Z M 30.554688 112.222656 "/>
<path style=" stroke:none;fill-rule:nonzero;fill:rgb(58.039216%,0%,25.098039%);fill-opacity:1;" d="M 42.222656 87.777344 C 43.777344 84.554688 43.222656 81.890625 42 79.777344 C 40.777344 77.667969 39.109375 76.890625 39.332031 76.445312 C 39.332031 76.332031 39.554688 76.222656 39.777344 76.332031 C 40 76.445312 40.332031 76.667969 40.777344 77.109375 L 46.222656 81.109375 C 45.109375 83.332031 44 85.667969 42.890625 88 C 41.777344 90.332031 40.777344 92.667969 39.667969 95 C 39.554688 95.222656 39.332031 95.222656 39.222656 95.222656 C 39.109375 95.109375 38.890625 95 38.667969 94.554688 L 25.890625 75.554688 L 25.109375 77.222656 C 23.667969 80.332031 23.890625 83 25.445312 85.332031 C 26.890625 87.445312 27.332031 87.445312 27.109375 87.777344 C 27 88 26.890625 88 26.777344 87.890625 C 26.667969 87.890625 26.445312 87.667969 26.109375 87.332031 L 21.332031 83.332031 C 22.332031 81.332031 23.332031 79.222656 24.332031 77.109375 C 25.332031 75 26.222656 72.890625 27.222656 70.777344 C 27.445312 70.445312 27.554688 70.332031 27.667969 70.445312 C 27.777344 70.554688 28 70.890625 28.332031 71.222656 L 41.109375 90.109375 Z M 42.222656 87.777344 "/>
<path style=" stroke:none;fill-rule:nonzero;fill:rgb(58.039216%,0%,25.098039%);fill-opacity:1;" d="M 34.554688 63.890625 C 32.554688 62.332031 31.890625 65.222656 31.222656 64.667969 C 31 64.554688 31 64.332031 31.332031 63.890625 C 32.332031 62.667969 33.332031 61.554688 34.109375 60.554688 C 34.890625 59.554688 35.777344 58.332031 36.777344 57.109375 C 37.109375 56.667969 37.332031 56.667969 37.445312 56.890625 C 38.109375 57.445312 35.445312 58.777344 37.445312 60.332031 L 43.109375 64.890625 L 48.222656 58.445312 L 42.554688 53.890625 C 40.554688 52.332031 39.890625 55.222656 39.222656 54.667969 C 39 54.554688 39 54.332031 39.332031 53.890625 C 40.332031 52.667969 41.332031 51.554688 42.109375 50.554688 C 42.890625 49.554688 43.777344 48.332031 44.777344 47.109375 C 45.109375 46.667969 45.332031 46.667969 45.445312 46.890625 C 46.109375 47.445312 43.445312 48.777344 45.445312 50.332031 L 58.109375 60.554688 C 60.109375 62.109375 60.777344 59.222656 61.445312 59.777344 C 61.667969 59.890625 61.667969 60.109375 61.332031 60.554688 C 60.332031 61.777344 59.332031 62.890625 58.554688 63.890625 C 57.777344 64.890625 56.890625 66.109375 55.890625 67.332031 C 55.554688 67.777344 55.332031 67.777344 55.222656 67.554688 C 54.554688 67 57.222656 65.667969 55.222656 64.109375 L 48.777344 58.890625 L 43.667969 65.332031 L 50.109375 70.554688 C 52.109375 72.109375 52.777344 69.222656 53.445312 69.777344 C 53.667969 69.890625 53.667969 70.109375 53.332031 70.554688 C 52.332031 71.777344 51.332031 72.890625 50.554688 73.890625 C 49.777344 74.890625 48.890625 76.109375 47.890625 77.332031 C 47.554688 77.777344 47.332031 77.777344 47.222656 77.554688 C 46.554688 77 49.222656 75.667969 47.222656 74.109375 Z M 34.554688 63.890625 "/>
<path style=" stroke:none;fill-rule:nonzero;fill:rgb(58.039216%,0%,25.098039%);fill-opacity:1;" d="M 56.332031 40.332031 C 54.890625 38.332031 53.332031 40.890625 52.890625 40.109375 C 52.777344 39.890625 52.777344 39.667969 53.109375 39.445312 C 54.445312 38.554688 55.667969 37.667969 56.667969 37 C 59.890625 34.777344 62.890625 32.554688 65.890625 30.332031 L 70.667969 34.332031 C 71 34.667969 71.222656 34.777344 71.332031 34.890625 C 71.445312 35 71.445312 35.109375 71.222656 35.222656 C 71 35.332031 70.667969 34.890625 68.554688 34 C 65.890625 32.890625 63.554688 33 60.445312 35.222656 L 59.109375 36.222656 L 64.332031 43.554688 L 65 43.109375 C 66.777344 41.777344 67.109375 39.554688 65.890625 37.667969 C 65.554688 37.109375 65.554688 37 65.777344 36.777344 C 65.890625 36.667969 66.109375 36.777344 66.332031 37 L 71.890625 44.777344 C 72 45 72 45.222656 71.890625 45.332031 C 71.667969 45.554688 71.445312 45.445312 71.109375 45 C 69.332031 42.777344 67.222656 42.554688 65.445312 43.777344 L 64.777344 44.222656 L 69.332031 50.667969 C 70.222656 51.890625 71.109375 52.109375 72.667969 51 C 76.667969 48.109375 76.777344 43.777344 75.777344 40.667969 C 75.554688 40.109375 75.445312 39.777344 75.667969 39.667969 C 75.890625 39.554688 76 39.667969 76.109375 39.777344 C 76.222656 39.890625 76.445312 40.222656 76.554688 40.554688 L 79.445312 47 C 76 49.332031 72.667969 51.777344 69.109375 54.332031 C 68.109375 55.109375 66.890625 56 65.554688 56.890625 C 65.109375 57.222656 65 57.109375 64.777344 56.890625 C 64.222656 56.222656 67.222656 55.554688 65.667969 53.554688 Z M 56.332031 40.332031 "/>
<path style=" stroke:none;fill-rule:nonzero;fill:rgb(58.039216%,0%,25.098039%);fill-opacity:1;" d="M 85.332031 38.445312 C 86.222656 40.777344 87.554688 41.445312 88.554688 41.445312 C 89.554688 41.445312 90.109375 40.890625 90.332031 41.445312 C 90.445312 41.667969 90.445312 41.777344 90 41.890625 C 89 42.222656 87.777344 42.667969 86.667969 43.109375 C 85.445312 43.554688 84.332031 44.109375 83.332031 44.445312 C 83 44.554688 82.890625 44.445312 82.777344 44.222656 C 82.554688 43.777344 83.445312 43.777344 84.109375 43.109375 C 84.890625 42.445312 85.445312 41.109375 84.554688 38.667969 L 79.667969 25.777344 C 78.109375 24.777344 77.222656 24.667969 76.222656 24.890625 C 75.777344 25 75.554688 25.109375 75.445312 24.777344 C 75.332031 24.554688 75.445312 24.445312 75.667969 24.332031 C 76.667969 24 77.777344 23.554688 78.890625 23.222656 L 82.222656 22 L 97.777344 31.222656 L 97.890625 31.222656 L 94.554688 22.554688 C 93.667969 20.222656 92.332031 19.554688 91.332031 19.554688 C 90.332031 19.554688 89.777344 20.109375 89.554688 19.554688 C 89.445312 19.332031 89.445312 19.222656 89.890625 19.109375 C 90.890625 18.777344 92.109375 18.332031 93.222656 17.890625 C 94.445312 17.445312 95.554688 16.890625 96.554688 16.554688 C 96.890625 16.445312 97 16.554688 97.109375 16.777344 C 97.332031 17.222656 96.445312 17.222656 95.777344 17.890625 C 95 18.554688 94.445312 19.890625 95.332031 22.332031 L 101 37.445312 C 101.222656 38 101.332031 38.445312 101.109375 38.554688 C 100.890625 38.667969 100.554688 38.332031 100.109375 38.109375 L 80.890625 26.445312 L 80.777344 26.445312 Z M 85.332031 38.445312 "/>
<path style=" stroke:none;fill-rule:nonzero;fill:rgb(58.039216%,0%,25.098039%);fill-opacity:1;" d="M 72.890625 212.890625 C 72.890625 214.546875 71.546875 215.890625 69.890625 215.890625 C 68.230469 215.890625 66.890625 214.546875 66.890625 212.890625 C 66.890625 211.230469 68.230469 209.890625 69.890625 209.890625 C 71.546875 209.890625 72.890625 211.230469 72.890625 212.890625 Z M 72.890625 212.890625 "/>
<path style=" stroke:none;fill-rule:nonzero;fill:rgb(58.039216%,0%,25.098039%);fill-opacity:1;" d="M 184.890625 212.890625 C 184.890625 214.546875 183.546875 215.890625 181.890625 215.890625 C 180.230469 215.890625 178.890625 214.546875 178.890625 212.890625 C 178.890625 211.230469 180.230469 209.890625 181.890625 209.890625 C 183.546875 209.890625 184.890625 211.230469 184.890625 212.890625 Z M 184.890625 212.890625 "/>
<path style=" stroke:none;fill-rule:nonzero;fill:rgb(58.039216%,0%,25.098039%);fill-opacity:1;" d="M 92.890625 230.332031 C 92.445312 231.554688 93 232.554688 94.667969 233.109375 C 96.222656 233.777344 96.554688 233.890625 96.445312 234.332031 C 96.332031 234.554688 96.222656 234.667969 95.890625 234.554688 C 93.890625 233.890625 91.777344 233.109375 89.890625 232.554688 C 87.890625 231.890625 85.777344 231.222656 83.777344 230.554688 C 83.445312 230.445312 83.332031 230.222656 83.445312 230 C 83.554688 229.554688 83.890625 229.667969 85.554688 230.109375 C 87.332031 230.554688 88.332031 230.222656 88.667969 228.890625 L 93.332031 215 C 93.554688 214.332031 93.445312 214.109375 92.890625 213.890625 L 88.890625 212.554688 C 88.667969 212.445312 88.554688 212.332031 88.554688 212.109375 C 88.667969 211.667969 89.222656 212.109375 91.890625 212.554688 C 95.890625 213.332031 97.890625 212.332031 98.445312 212.445312 C 98.667969 212.554688 98.777344 212.777344 98.667969 213.222656 Z M 92.890625 230.332031 "/>
<path style=" stroke:none;fill-rule:nonzero;fill:rgb(58.039216%,0%,25.098039%);fill-opacity:1;" d="M 114.777344 216 C 119.890625 216.554688 122.667969 220.890625 122.109375 226.109375 C 121.109375 235.109375 109.332031 237.332031 108 237.222656 C 107.890625 237.222656 107.777344 237.109375 107.890625 237 C 107.890625 236.667969 114.554688 235.667969 117.109375 228.109375 C 115.777344 228.777344 114.445312 229.109375 112.777344 229 C 107.667969 228.445312 105.777344 225 106.109375 221.890625 C 106.445312 218 109.554688 215.445312 114.777344 216 Z M 113.667969 228.222656 C 115.109375 228.332031 116.890625 227.554688 117.332031 226.890625 C 117.445312 226.667969 117.777344 225.445312 117.890625 224.109375 C 118.445312 218.445312 116.890625 216.667969 114.554688 216.445312 C 112.777344 216.222656 110.890625 217.109375 110.332031 221.890625 C 109.890625 226.332031 111.554688 228 113.667969 228.222656 Z M 113.667969 228.222656 "/>
<path style=" stroke:none;fill-rule:nonzero;fill:rgb(58.039216%,0%,25.098039%);fill-opacity:1;" d="M 131.332031 227.222656 C 129.332031 226 128.445312 224.445312 128.332031 222.890625 C 128 219.554688 131.109375 216.554688 135.445312 216.109375 C 139 215.777344 141.890625 217.777344 142.109375 220.445312 C 142.222656 222.332031 141.445312 224.109375 140 225.222656 C 142.445312 225.777344 144 228 144.222656 230.667969 C 144.554688 234.222656 141.222656 237.445312 136.109375 237.890625 C 131.667969 238.222656 128.554688 235.890625 128.332031 232.667969 C 128.222656 231 129.109375 228.777344 131.332031 227.222656 Z M 136.109375 237.445312 C 139.222656 237.222656 140.667969 235.109375 140.445312 232.667969 C 140.332031 231 139.445312 229.667969 136 228.777344 C 132.777344 227.890625 132.445312 227.667969 132 227.667969 C 131.445312 227.667969 130 229.445312 130.222656 232.222656 C 130.667969 235.554688 132.777344 237.667969 136.109375 237.445312 Z M 135.554688 216.667969 C 133.332031 216.890625 132 218.445312 132.222656 220.667969 C 132.445312 223.890625 137.332031 224.554688 139.554688 225.109375 C 140.222656 224.222656 140.777344 223.332031 140.554688 221.222656 C 140.222656 218 138.332031 216.445312 135.554688 216.667969 Z M 135.554688 216.667969 "/>
<path style=" stroke:none;fill-rule:nonzero;fill:rgb(58.039216%,0%,25.098039%);fill-opacity:1;" d="M 160.445312 219.445312 C 162.777344 220.222656 164.667969 221.445312 165.445312 223.890625 C 166.667969 227.890625 163.777344 232.222656 159.445312 233.667969 C 155.222656 235 151.777344 233.890625 151.109375 231.777344 C 150.777344 230.554688 151.222656 229.222656 152.445312 228.890625 C 154 228.445312 154.890625 229.109375 155.667969 231.109375 C 156.332031 233.222656 157.777344 233.667969 159.222656 233.222656 C 161.667969 232.445312 162.890625 230.109375 161.890625 227 C 161.109375 224.445312 159.222656 223.109375 157.109375 223.109375 C 155.777344 223.109375 154.667969 223.777344 154.554688 223.332031 C 154.332031 222.667969 155.777344 223 157 221.667969 C 157.890625 220.777344 158 219.332031 157.445312 217.667969 C 156.777344 215.445312 154.890625 214.667969 152.445312 215.445312 C 149.222656 216.445312 149.667969 219 149.109375 219.109375 C 149 219.109375 148.777344 219.109375 148.777344 218.890625 C 148.554688 218.109375 149.445312 214 153.667969 212.667969 C 156.667969 211.777344 160.109375 212.554688 161.109375 215.777344 C 161.445312 217.109375 161.222656 218.222656 160.445312 219.445312 Z M 160.445312 219.445312 "/>
<path style=" stroke:none;fill-rule:nonzero;fill:rgb(58.039216%,0%,25.098039%);fill-opacity:1;" d="M 126 252 C 109 252 92.445312 248.667969 77 242.109375 C 62 235.777344 48.554688 226.667969 37 215.109375 C 25.445312 203.554688 16.332031 190.109375 10 175.109375 C 3.332031 159.445312 0 143 0 126 C 0 109 3.332031 92.445312 9.890625 77 C 16.222656 62 25.332031 48.554688 36.890625 37 C 48.445312 25.445312 61.890625 16.332031 76.890625 10 C 92.445312 3.332031 109 0 126 0 C 143 0 159.554688 3.332031 175 9.890625 C 190 16.222656 203.445312 25.332031 215 36.890625 C 226.554688 48.445312 235.667969 61.890625 242 76.890625 C 248.554688 92.445312 251.890625 108.890625 251.890625 125.890625 C 251.890625 142.890625 248.554688 159.445312 242 174.890625 C 235.667969 189.890625 226.554688 203.332031 215 214.890625 C 203.445312 226.445312 190 235.554688 175 241.890625 C 159.445312 248.667969 143 252 126 252 Z M 126 4.445312 C 59 4.445312 4.445312 58.890625 4.445312 126 C 4.445312 193 59 247.554688 126 247.554688 C 193 247.554688 247.554688 193 247.554688 126 C 247.554688 58.890625 193 4.445312 126 4.445312 Z M 126 4.445312 "/>
<path style=" stroke:none;fill-rule:nonzero;fill:rgb(58.039216%,0%,25.098039%);fill-opacity:1;" d="M 104.332031 136.667969 C 104.554688 136.777344 104.777344 136.890625 105.222656 136.890625 C 106.109375 136.890625 106.667969 136.332031 106.890625 136.222656 C 107 136.222656 107.222656 136 107.222656 136 C 107.222656 135.667969 105.890625 135.109375 105.332031 135.109375 C 104.554688 135.109375 103.332031 135.777344 103.332031 136 C 103.222656 136.222656 104 136.554688 104.332031 136.667969 Z M 104.332031 136.667969 "/>
<path style=" stroke:none;fill-rule:nonzero;fill:rgb(58.039216%,0%,25.098039%);fill-opacity:1;" d="M 111.890625 152.332031 C 112.222656 150.445312 111.554688 151 107.667969 150.890625 C 105.890625 150.890625 99.777344 150.777344 98 151 C 97.222656 151.109375 97.109375 151.777344 97.109375 152.222656 C 97.109375 153.554688 96.777344 153.445312 103.445312 153.445312 L 106 153.222656 C 110.109375 152.890625 111.109375 153.332031 111.890625 152.332031 Z M 111.890625 152.332031 "/>
<path style=" stroke:none;fill-rule:nonzero;fill:rgb(58.039216%,0%,25.098039%);fill-opacity:1;" d="M 179 92.667969 C 179 94.332031 179.667969 95.890625 180.890625 96.890625 L 200.890625 116.890625 C 202 118 202.667969 119.445312 202.667969 121.109375 L 202.667969 96.222656 C 202.667969 95 202 93.445312 201.109375 92.554688 L 159.222656 50.667969 C 158.445312 49.890625 156.777344 49.109375 155.554688 49.109375 L 152.445312 49.109375 C 151.667969 49.109375 151 49.777344 151 50.554688 L 151 70.445312 C 151 71.667969 150 72.667969 148.777344 72.667969 L 146.554688 72.667969 L 146.554688 53.667969 C 146.554688 51.222656 144.554688 49.222656 142.109375 49.222656 L 109.777344 49.222656 C 107.332031 49.222656 105.332031 51.222656 105.332031 53.667969 L 105.332031 72.777344 L 103.109375 72.777344 C 101.890625 72.777344 100.890625 71.777344 100.890625 70.554688 L 100.890625 50.667969 C 100.890625 49.890625 100.222656 49.222656 99.445312 49.222656 L 96.332031 49.222656 C 95.109375 49.222656 93.554688 49.890625 92.667969 50.777344 L 50.890625 92.554688 C 50.109375 93.332031 49.332031 95 49.332031 96.222656 L 49.332031 121.222656 C 49.332031 119.554688 50 118.109375 51.109375 117 L 71.109375 97 C 72.222656 95.890625 73 94.445312 73 92.777344 L 73 97 C 73 98.667969 72.332031 100.109375 71.222656 101.222656 L 51.222656 121.222656 C 50.109375 122.332031 49.332031 123.777344 49.332031 125.445312 L 49.332031 148 C 49.332031 146.332031 50 144.890625 51.109375 143.777344 L 71.109375 123.777344 C 72.222656 122.667969 73 121.222656 73 119.554688 L 73 123.777344 C 73 125.445312 72.332031 126.890625 71.222656 128 L 51.222656 148 C 50.109375 149.109375 49.332031 150.554688 49.332031 152.222656 L 49.332031 155.554688 C 49.332031 156.777344 50 158.332031 50.890625 159.222656 L 56.777344 165.109375 L 71.109375 150.554688 C 72.222656 149.445312 73 148 73 146.332031 L 73 150.554688 C 73 152.222656 72.332031 153.667969 71.222656 154.777344 L 58.777344 167.222656 L 92.332031 200.777344 L 101.445312 184.445312 C 102.222656 183 103.777344 182 105.554688 182 L 109.109375 182 C 107.332031 182 105.777344 183 105 184.554688 L 95 202.222656 C 95.445312 202.332031 96 202.445312 96.332031 202.445312 L 113.554688 202.445312 L 116.890625 184.222656 C 117.109375 182.777344 118.332031 181.777344 119.777344 181.777344 L 122.667969 181.777344 C 121.222656 181.777344 120 182.890625 119.777344 184.222656 L 116.445312 202.332031 L 135.109375 202.332031 L 131.777344 184.222656 C 131.554688 182.777344 130.332031 181.777344 128.890625 181.777344 L 131.777344 181.777344 C 133.222656 181.777344 134.445312 182.890625 134.667969 184.222656 L 138 202.445312 L 155.554688 202.445312 C 156 202.445312 156.445312 202.332031 156.890625 202.222656 L 147 184.332031 C 146.222656 182.890625 144.667969 181.777344 142.890625 181.777344 L 146.445312 181.777344 C 148.222656 181.777344 149.777344 182.777344 150.554688 184.222656 L 159.667969 200.554688 L 193.222656 167 L 180.777344 154.554688 C 179.667969 153.445312 179 152 179 150.332031 L 179 146.109375 C 179 147.777344 179.667969 149.332031 180.890625 150.332031 L 195.222656 164.667969 L 201.109375 158.777344 C 201.890625 158 202.667969 156.332031 202.667969 155.109375 L 202.667969 151.777344 C 202.667969 150.109375 202 148.554688 200.777344 147.554688 L 180.777344 127.554688 C 179.667969 126.445312 179 125 179 123.332031 L 179 119.109375 C 179 120.777344 179.667969 122.332031 180.890625 123.332031 L 200.890625 143.332031 C 202 144.445312 202.667969 145.890625 202.667969 147.554688 L 202.667969 125 C 202.667969 123.332031 202 121.777344 200.777344 120.777344 L 180.777344 100.777344 C 179.667969 99.667969 179 98.222656 179 96.554688 Z M 142.332031 94.109375 C 143 88 143.109375 88.554688 146.554688 87.332031 C 150.667969 86.554688 152.890625 86 155 86 C 157.109375 86.109375 161.890625 86.222656 166.222656 87.890625 C 168.109375 88.554688 167.332031 89.222656 167.445312 96.222656 C 167.109375 98.890625 166.890625 98.445312 164.222656 98.667969 C 162 98.554688 160.777344 98.777344 157.890625 98 C 157 96.890625 155.777344 90.445312 153.667969 91.222656 C 152.777344 91.890625 153.667969 92 152.109375 95.109375 C 151.777344 95.554688 151.222656 97.109375 150.667969 97.777344 C 148.445312 98.777344 146.554688 98.445312 144.109375 98.554688 C 141.777344 98.445312 142.332031 97.332031 142.332031 94.109375 Z M 138 88.890625 C 138.109375 87.554688 138 87.332031 139 87.222656 C 140.667969 87.222656 140.667969 87.777344 140.777344 88.667969 C 140.777344 90 140.667969 92.777344 140.667969 95.332031 C 140.667969 96.890625 140.667969 100.109375 139.445312 100.554688 C 138.109375 100.777344 137.332031 100.890625 137.445312 99.332031 C 137.332031 98.445312 137.777344 97.109375 138 95.777344 C 138.332031 94.332031 138.109375 90.554688 138 88.890625 Z M 138.777344 104.554688 C 140.332031 105.222656 140.445312 110 140.445312 110 C 140.445312 110.667969 140.554688 114.890625 140.554688 116.332031 C 140.554688 117.777344 140.667969 118.777344 140.445312 119.445312 C 140 119.890625 139.332031 119.890625 138.445312 119.777344 C 137.777344 119.332031 137.332031 115.554688 137.332031 114.332031 C 137.332031 113.109375 137.332031 110.222656 136.890625 107.332031 C 136.667969 104.554688 137 104.890625 138.777344 104.554688 Z M 132.890625 101.890625 C 133 99.777344 133.667969 92.667969 133.445312 90.890625 C 133.445312 89.667969 133.332031 88 133.667969 86.777344 C 133.890625 86.222656 134.445312 86.109375 135.445312 86 C 137.109375 85.667969 136.777344 91.445312 136.777344 91.445312 C 136.667969 96.445312 135.332031 106.332031 135.332031 108.890625 C 134.777344 113.109375 136.890625 124.445312 135.777344 125.445312 C 135.445312 125.667969 134 125.890625 133.667969 125.109375 C 132.554688 122 132.554688 117.332031 132.332031 113.332031 C 132 109 132.777344 104 132.890625 101.890625 Z M 128.554688 95.332031 C 129 92.332031 128.777344 88.777344 129.109375 87.890625 C 129.445312 87.554688 130.222656 87.332031 131.109375 87.554688 C 132.222656 88.332031 132.554688 98.222656 130.109375 100.109375 C 129.332031 100.109375 128.445312 100.222656 128.222656 99.667969 C 127.777344 99.109375 128.222656 97.554688 128.554688 95.332031 Z M 127.222656 108.554688 C 127.222656 104.554688 127.667969 103.890625 128.445312 102.777344 C 129.332031 102.332031 130.445312 102.890625 130.777344 103.445312 C 131.332031 104.890625 130.445312 111.777344 130.222656 114.890625 C 130 118 131 121.109375 129.777344 121.667969 C 128.445312 122.109375 127.554688 121.667969 127.445312 120.777344 C 127.109375 117.109375 127.222656 108.554688 127.222656 108.554688 Z M 123.667969 157.109375 C 123.445312 162.332031 123.332031 161.777344 119.777344 161.777344 C 116.667969 161.777344 108.890625 161.777344 108.332031 161.890625 C 108.332031 162.667969 108.109375 164.222656 108.222656 165.667969 C 108.332031 167.667969 109.445312 168.222656 101.222656 169.109375 C 99.222656 169.332031 86.777344 168.777344 86 167.332031 C 85.109375 165.777344 83.554688 163.332031 84.777344 161.222656 C 86.554688 162.667969 88.222656 163.667969 92 165.109375 C 95 165.667969 100 166.109375 102.445312 165.332031 C 104.222656 164.554688 104.222656 164.109375 104.109375 162.109375 C 98.332031 161.777344 95.222656 161.554688 93.222656 161.445312 C 90 161.109375 90.222656 161.109375 90.109375 159.554688 C 90.222656 158.222656 90.554688 158 92.667969 158.109375 C 93.777344 158.332031 96.332031 158.445312 99.667969 158.445312 C 102.109375 158.445312 104.109375 158.445312 104.109375 158.445312 L 104.109375 155.890625 C 104.109375 155.890625 99.667969 156.109375 98 156 C 92.667969 155.777344 93.554688 155 93.332031 152.667969 C 93.777344 148.332031 93.777344 148.890625 97.667969 148.667969 C 101 148.554688 110.445312 148.445312 113 148.554688 C 116.890625 148.890625 116.332031 149.222656 116.222656 152.554688 C 115.890625 154.554688 116.554688 155.222656 112.777344 155.777344 C 112.109375 155.777344 108.445312 156 108.445312 156 L 108.445312 158.554688 L 117 158.554688 C 117 158.554688 120 158.554688 120 156 C 120 153.445312 120.332031 149.667969 120.332031 149.667969 C 120.332031 149.667969 120.332031 147 117.667969 147 C 115 147 100.777344 146.777344 94.890625 146.890625 C 90.332031 146.890625 90.222656 147.667969 89.890625 149.222656 C 89.445312 151 89.109375 158.222656 87.777344 157.890625 C 84.332031 157 85.109375 156.667969 85.222656 154.667969 C 85.332031 152 85.777344 149.222656 86.332031 146.554688 C 87.109375 144.667969 87.332031 143.667969 98.554688 143.667969 C 103.667969 143.667969 118.777344 143.667969 118.777344 143.667969 C 122.222656 143.890625 123.332031 143.890625 123.777344 147.109375 C 124 151.777344 123.890625 153.332031 123.667969 157.109375 Z M 90.109375 134.222656 C 90.109375 135 91.445312 134.890625 94.109375 134.777344 C 96.445312 134.777344 96.332031 134.332031 96.332031 136.222656 C 96.332031 136.890625 96.445312 137.109375 94.890625 137.222656 C 89.554688 137.445312 90 137.332031 90 138.667969 C 90 139.777344 90.890625 139.445312 94.109375 139.332031 C 96.222656 139.222656 96.332031 138.890625 96.554688 140.332031 C 96.667969 141.222656 96.554688 141.777344 96.554688 141.777344 C 95 141.777344 89.109375 142.332031 87.667969 142.222656 C 86.109375 142 86.109375 142.109375 86.222656 139 C 86.445312 136.222656 86.554688 133.554688 87.109375 131.109375 C 87.777344 129.667969 87.890625 130 93.777344 129.667969 C 96.890625 129.667969 96.554688 129.445312 96.777344 131.554688 C 96.890625 132.332031 97 132.445312 91.890625 132.777344 C 89.667969 132.890625 90 132.667969 90.109375 134.222656 Z M 98.890625 131.445312 C 98.554688 131.332031 99.667969 129.777344 100.222656 129.667969 C 101 129.777344 103 131 103.667969 131.222656 C 103.890625 131.332031 104.445312 131.554688 105.332031 132 C 105.667969 131.777344 106 131.667969 106.222656 131.554688 C 106.890625 131.109375 109.890625 129.445312 110.777344 129.445312 C 111 129.554688 112.222656 131.332031 111.332031 131.890625 C 110.332031 132.554688 109.222656 133.332031 108.445312 133.667969 C 109.332031 134.109375 110.109375 134.554688 110.222656 134.667969 C 111.445312 135.332031 111.777344 135.554688 111.667969 136.890625 C 111.554688 137.109375 111 137.554688 110.667969 137.667969 C 110 138 109.445312 138.332031 108.667969 138.667969 C 109.222656 138.890625 109.777344 139.222656 110.332031 139.445312 C 112.667969 140.777344 112.554688 140.445312 111.890625 141.667969 C 111 142.890625 109.667969 142.222656 109.109375 142 C 108.777344 141.890625 107 141.109375 105.332031 140.222656 C 104.332031 140.777344 103 141.554688 101.777344 142 C 100.109375 142.777344 99.890625 142.777344 99.332031 142 C 98.332031 140.554688 99 140.667969 100.667969 139.667969 C 100.890625 139.554688 101.667969 139.222656 102.222656 138.777344 C 101.445312 138.445312 100.667969 138.109375 99.777344 137.554688 C 99.554688 137.445312 98.890625 137 98.777344 136.667969 C 98.777344 136 98.554688 135.445312 100.332031 134.445312 C 100.890625 134.109375 101.445312 133.890625 102 133.667969 C 100.667969 132.890625 99.332031 132.109375 98.890625 131.445312 Z M 122.890625 141.777344 C 121.667969 142 114.554688 142.222656 114.445312 142.222656 C 113.777344 142.109375 113.667969 142.222656 113.667969 141.332031 C 113.667969 139.890625 113.777344 139.777344 116.109375 139.890625 C 118.445312 140 120.222656 140.109375 120.222656 138.777344 C 120.222656 137.777344 120 137.554688 116.109375 137.667969 C 113.890625 137.777344 114 137.667969 114 137.222656 C 113.777344 135.890625 113.445312 135.109375 115.332031 135 C 118 134.777344 120.109375 135 120.332031 134.332031 C 120.554688 133.222656 120.332031 132.777344 118.222656 132.890625 C 113.777344 133.222656 113.554688 133.554688 113.554688 132.109375 C 113.554688 130.777344 113 130.332031 116.445312 130.222656 C 120 130.109375 122.890625 129.667969 123.109375 131.332031 C 123.667969 133.222656 123.777344 135.667969 123.890625 139.445312 C 124 141.667969 123.777344 141.554688 122.890625 141.777344 Z M 122.332031 126.667969 C 121.109375 127.332031 116.554688 121.109375 113.445312 117 C 112.332031 115.554688 108.332031 112.109375 104.777344 111.890625 C 99.445312 111.554688 92 121.109375 90.109375 124.445312 C 89.222656 125.890625 88.109375 127.332031 86.554688 126.667969 C 85.109375 125.777344 85.109375 125.777344 86 123.332031 C 87.554688 119.667969 94.222656 112.332031 97.109375 110.332031 C 100.109375 107.445312 100.890625 107.109375 101.890625 103.777344 C 102.332031 97.554688 102.222656 96.109375 100.445312 95.890625 C 98.667969 95.667969 90.667969 94.554688 90.332031 99.445312 C 90.109375 103.667969 90.109375 105.445312 90.109375 107.222656 C 90.109375 109.777344 89.890625 109.332031 87.445312 109.332031 C 85.777344 109.332031 86.667969 100.890625 86.667969 95.222656 C 87.554688 91.777344 89.667969 92.445312 93 92.109375 C 94.777344 92.332031 97.109375 92.109375 98.332031 92.109375 C 101.222656 92.109375 101.890625 90.667969 102 88.332031 C 102.222656 86 102.445312 85.890625 104.445312 85.554688 C 106.222656 85.222656 106.109375 86.667969 106.445312 88.445312 C 107.109375 91.222656 106.109375 91.445312 110.109375 91.667969 C 113.554688 91.667969 116.222656 91.777344 117.667969 91.890625 C 121 92.222656 122.890625 91.890625 123.109375 97 C 123.222656 101.332031 124.332031 105.445312 123 107 C 122.445312 107.667969 120.890625 108.445312 119.777344 108.222656 C 118.332031 107.445312 121.332031 97.890625 117.667969 96.332031 C 115.554688 95.332031 109.554688 95.332031 107.777344 96.222656 C 106.109375 97 106.777344 100.445312 106.667969 102.890625 C 106.667969 104.777344 106.667969 106.890625 110.554688 109.445312 C 114.554688 112.332031 118.109375 116.109375 121.777344 120.445312 C 123.777344 122.667969 125.667969 125.667969 122.332031 126.667969 Z M 124.554688 72.777344 L 106.777344 72.777344 C 106.777344 70.332031 108.777344 68.332031 111.222656 68.332031 L 122.222656 68.332031 C 123.445312 68.332031 124.445312 69.332031 124.445312 70.554688 L 124.445312 72.777344 Z M 141.332031 149.222656 C 140.667969 149.890625 138.109375 150.222656 137.554688 151 C 137 151.777344 137.222656 157.667969 137.554688 158 C 138 158.554688 139.222656 158.222656 141 158 C 142.332031 158 142.890625 162.222656 141.777344 162.332031 C 140.667969 162.554688 136.777344 163 134.777344 163.109375 C 132.554688 163.332031 131.332031 163.554688 129.222656 163.554688 C 127.222656 163.554688 127.332031 162.554688 127.109375 161 C 127.109375 159.332031 126.890625 158.777344 128.554688 158.890625 C 130.109375 159 131.222656 159.109375 132.667969 157.890625 C 133.667969 157 133.109375 154.890625 133.222656 153.222656 C 133.222656 151.777344 133.554688 150.332031 131.445312 150.890625 C 128.445312 151.554688 128.332031 152 128.332031 147 C 128.332031 145.222656 128.332031 143.445312 128.445312 142.332031 C 128.667969 139.890625 128.109375 138.667969 131.109375 138.109375 C 132.445312 137.777344 131.667969 141.777344 131.667969 143.667969 C 131.667969 145.445312 131.445312 147.332031 132.445312 147.332031 C 134.890625 147.554688 133.445312 141.890625 133.667969 137.222656 C 133.777344 134.109375 133.109375 132.667969 135.554688 132.222656 C 137.777344 131.890625 137.222656 132.777344 137.332031 135.332031 C 137.332031 137.777344 137.222656 146.222656 138.222656 146.109375 C 140.332031 146 139.890625 138.777344 139.777344 137.554688 C 139.777344 135.667969 139.445312 134.777344 141.332031 134.667969 C 142.890625 134.554688 142.890625 134.445312 143.109375 136.222656 C 143.445312 138 143.445312 139.667969 143.445312 141 C 143.332031 142.777344 143.222656 143.667969 142.890625 145.554688 C 142.777344 147.777344 142.109375 148.554688 141.332031 149.222656 Z M 150.554688 168.667969 C 149.445312 168.890625 149 168.890625 147.667969 168.667969 C 146.667969 168.445312 146.222656 167.332031 145.332031 164.777344 C 145 163.445312 144.554688 162 143.890625 158.777344 C 143.554688 155.109375 143 152.222656 143.777344 150.332031 C 144.109375 149 144.890625 147 145.777344 145.445312 C 146.445312 143.890625 147 142.777344 147.777344 140.109375 C 148.222656 137.445312 148.222656 137.222656 147.777344 135 C 147.667969 134.109375 147 133 146.554688 131.777344 C 145.777344 130.222656 145.332031 129.445312 147.222656 129.222656 C 149.890625 129 149.667969 129.332031 150.890625 131.109375 C 152.109375 134 152.109375 135.109375 152.222656 136 C 152.445312 138.222656 152.445312 140.667969 150.332031 145.222656 C 148.332031 149.222656 147.554688 150.777344 147.777344 154.554688 C 148.109375 158.777344 149 163.222656 149.554688 164.777344 C 149.890625 165.777344 151.445312 168.445312 150.554688 168.667969 Z M 157 162.890625 C 157.777344 165.667969 159.554688 168.109375 158.445312 168.445312 C 157.554688 168.667969 155.890625 168.554688 155.332031 168 C 154.222656 166.777344 153.222656 164.554688 152.445312 160.890625 C 151.890625 157 151.554688 154.554688 152 151 C 153.222656 145.667969 155.890625 144.109375 156.332031 139.667969 C 156.554688 136.777344 156.332031 136 155.890625 134.777344 C 155.109375 132.667969 152.667969 129.445312 155.554688 129.445312 C 157.332031 129.445312 157.332031 129.667969 158.109375 130.222656 C 159.222656 131.109375 160.445312 134.890625 160.667969 137 C 160.890625 140.222656 159.445312 143.554688 158.332031 146.332031 C 157.109375 149.554688 155.890625 151.332031 155.890625 154.445312 C 155.890625 156.445312 156.109375 159.332031 157 162.890625 Z M 167.222656 142.890625 C 165.777344 148.332031 164.554688 147.667969 163.445312 153.667969 C 163.445312 156 164.667969 161 165.109375 162.777344 C 165.445312 164.554688 167.109375 168 166.332031 168.222656 C 165.445312 168.445312 163.554688 168 162.890625 167.554688 C 161.890625 166.777344 161.109375 163.332031 160.667969 162.109375 C 159.890625 158.667969 158.554688 152.777344 161 147.890625 C 161.667969 146.332031 162.890625 144.332031 163.554688 140.445312 C 163.554688 135.109375 163.222656 134.554688 162.445312 132 C 161.890625 130.554688 161.109375 129.445312 162.445312 129.332031 C 166.332031 129.332031 165.890625 130.554688 167 133.109375 C 167.890625 136.332031 167.890625 137.554688 167.222656 142.890625 Z M 166.222656 124.777344 C 164.109375 125.554688 164.222656 124.445312 164.222656 121.445312 C 164.109375 119.445312 164.445312 113.332031 161.667969 112.445312 C 159.332031 111.332031 157.222656 111.222656 156.667969 112 C 156.332031 112.554688 156.445312 123.445312 156.445312 123.445312 C 156.445312 126 155.332031 125.554688 154.222656 125.445312 C 152 124.890625 152.332031 123.667969 152.332031 121.554688 C 152.332031 119.554688 152.332031 112.222656 152 111.777344 C 151.667969 111.445312 147.554688 111.222656 146.777344 115.554688 C 146.109375 119.667969 145.667969 122.445312 145.554688 123.332031 C 145.445312 123.890625 145.332031 124.554688 145 124.667969 C 144.222656 124.890625 142.667969 125.222656 142.445312 124.890625 C 142 123.332031 142.445312 121 142.667969 118.332031 C 143.109375 115.554688 143.777344 113.554688 144.667969 111.222656 C 145 109.667969 149.222656 108.554688 151.667969 107.554688 C 153.109375 107.222656 152.667969 105 152.222656 104.890625 C 151.445312 104.667969 148.667969 105.109375 146.890625 105.332031 C 145.667969 105.332031 144.554688 106.332031 143.554688 104.109375 C 143.109375 103 142.890625 102.109375 145.777344 101.890625 L 149.667969 101.554688 C 149.667969 101.554688 152.445312 101.445312 152.554688 101 C 152.554688 100.332031 152.667969 99 153.332031 97.890625 C 153.554688 97.554688 154.667969 97.667969 155.332031 97.777344 C 156.777344 98.222656 156.222656 98.222656 156.445312 100.109375 C 156.554688 100.890625 156.222656 101.109375 161 101 C 164.332031 100.890625 166.890625 100.445312 166.777344 101.890625 C 166.777344 102.554688 166.777344 103.890625 166.445312 104.332031 C 166 104.890625 165 104.667969 163.445312 104.667969 C 161.109375 104.667969 157.222656 104.777344 156.667969 104.890625 C 156.332031 105.109375 156.332031 105.777344 156.554688 106.445312 C 156.777344 107 156.445312 107 158.667969 107.554688 C 166.109375 109.777344 166 109.222656 167.109375 114.109375 C 167.777344 118.109375 167.777344 120.445312 167.777344 121.667969 C 167.667969 123.109375 168.222656 124 166.222656 124.777344 Z M 166.222656 124.777344 "/>
<path style=" stroke:none;fill-rule:nonzero;fill:rgb(58.039216%,0%,25.098039%);fill-opacity:1;" d="M 161.777344 94.777344 L 163.554688 94.667969 C 164.445312 94.445312 164.332031 93.109375 163.890625 91.109375 C 163.332031 89.890625 161.667969 90 160 90 C 159.332031 90 158.890625 90.109375 159.109375 91.109375 C 159.667969 95.109375 159.890625 94.445312 161.777344 94.777344 Z M 161.777344 94.777344 "/>
<path style=" stroke:none;fill-rule:nonzero;fill:rgb(58.039216%,0%,25.098039%);fill-opacity:1;" d="M 146.222656 95 L 147.554688 94.890625 C 150.109375 94.667969 150 93.332031 150.332031 91.109375 C 150.445312 90.222656 149 90.445312 147.554688 90.667969 C 146.222656 90.890625 146.109375 90.890625 145.890625 91.890625 C 145.667969 92.777344 145.332031 94.667969 146.222656 95 Z M 146.222656 95 "/>
</g>
</svg>
